# xmcd
# 
# Track frame offsets:
#     183
#     22283
#     39123
#     58895
#     84638
#     127555
#     149430
#     178963
# 
# Disc length: 2854
# 
# Revision: 1
# Processed by: cddbd v1.5.2PL0 Copyright (c) Steve Scherf et al.
# Submitted via: fre:ac v1.0.31
# 
DISCID=6c0b2408
DTITLE=Michel Jonasz - La fabuleuse histoire de Mister Swing CD 1
DYEAR=1988
DGENRE=Jazz+Funk
TTITLE0=In the Morning
TTITLE1=Mister Swing
TTITLE2=La chanson des musiciens
TTITLE3=La chanson du producteur
TTITLE4=La chanson du compositeur
TTITLE5=Je t'aime
TTITLE6=Poussy
TTITLE7=Fifty Fifty
EXTD=YEAR: 1996 ID3G:   0
EXTT0=
EXTT1=
EXTT2=
EXTT3=
EXTT4=
EXTT5=
EXTT6=
EXTT7=
PLAYORDER=
